<?xml version="1.0" ?><!DOCTYPE svg  PUBLIC '-//W3C//DTD SVG 1.1//EN'  'http://www.w3.org/Graphics/SVG/1.1/DTD/svg11.dtd'><svg enable-background="new 0 0 64 64" height="64px" id="Layer_1" version="1.1" viewBox="0 0 64 64" width="64px" xml:space="preserve" xmlns="http://www.w3.org/2000/svg" xmlns:xlink="http://www.w3.org/1999/xlink"><path d="M32,0.75C14.769,0.75,0.75,14.769,0.75,32S14.769,63.25,32,63.25S63.25,49.231,63.25,32S49.231,0.75,32,0.75z M32,60.25  C16.423,60.25,3.75,47.577,3.75,32S16.423,3.75,32,3.75S60.25,16.423,60.25,32S47.577,60.25,32,60.25z"/><path d="M32,8.25c-0.829,0-1.5,0.671-1.5,1.5v6.833c0,0.829,0.671,1.5,1.5,1.5s1.5-0.671,1.5-1.5V9.75  C33.5,8.921,32.829,8.25,32,8.25z"/><path d="M32,45.917c-0.829,0-1.5,0.672-1.5,1.5v6.833c0,0.828,0.671,1.5,1.5,1.5s1.5-0.672,1.5-1.5v-6.833  C33.5,46.589,32.829,45.917,32,45.917z"/><path d="M17.327,15.206c-0.586-0.586-1.535-0.586-2.121,0c-0.586,0.585-0.586,1.536,0,2.121l4.832,4.832  c0.293,0.293,0.677,0.439,1.061,0.439s0.768-0.146,1.061-0.439c0.586-0.585,0.586-1.536,0-2.121L17.327,15.206z"/><path d="M43.962,41.841c-0.586-0.586-1.535-0.586-2.121,0s-0.586,1.535,0,2.121l4.832,4.832c0.293,0.293,0.677,0.439,1.061,0.439  s0.768-0.146,1.061-0.439c0.586-0.586,0.586-1.535,0-2.121L43.962,41.841z"/><path d="M42.901,22.599c0.384,0,0.768-0.146,1.061-0.439l4.832-4.832c0.586-0.585,0.586-1.536,0-2.121  c-0.586-0.586-1.535-0.586-2.121,0l-4.832,4.832c-0.586,0.585-0.586,1.536,0,2.121C42.134,22.452,42.518,22.599,42.901,22.599z"/><path d="M20.038,41.841l-4.832,4.832c-0.586,0.586-0.586,1.535,0,2.121c0.293,0.293,0.677,0.439,1.061,0.439  s0.768-0.146,1.061-0.439l4.832-4.832c0.586-0.586,0.586-1.535,0-2.121S20.624,41.255,20.038,41.841z"/><path d="M18.083,32c0-0.829-0.671-1.5-1.5-1.5H9.75c-0.829,0-1.5,0.671-1.5,1.5s0.671,1.5,1.5,1.5h6.833  C17.412,33.5,18.083,32.829,18.083,32z"/><path d="M54.25,30.5h-6.833c-0.828,0-1.5,0.671-1.5,1.5s0.672,1.5,1.5,1.5h6.833c0.828,0,1.5-0.671,1.5-1.5S55.078,30.5,54.25,30.5z  "/></svg>